<?xml version="1.0" encoding="utf-8"?>
<!-- Generator: Adobe Illustrator 23.0.1, SVG Export Plug-In . SVG Version: 6.00 Build 0)  -->
<svg version="1.1" id="Layer_1" xmlns="http://www.w3.org/2000/svg" xmlns:xlink="http://www.w3.org/1999/xlink" x="0px" y="0px"
	 viewBox="0 0 474.8 496" style="enable-background:new 0 0 474.8 496;" xml:space="preserve">
<style type="text/css">
	.st0{fill:#939598;}
	.st1{fill:#FFFFFF;}
</style>
<title>api</title>
<path class="st0" d="M468.8,307.6L426.2,283c4.3-23.2,4.3-47,0-70.2l42.6-24.6c4.9-2.8,7.1-8.6,5.5-14c-11-35.2-29.7-67.5-54.7-94.6
	c-3.8-4.1-9.9-5.1-14.8-2.3l-42.6,24.6c-17.9-15.4-38.5-27.3-60.8-35.1V17.7c0-5.6-3.9-10.5-9.4-11.7c-36-8-73.2-8-109.2,0
	c-5.5,1.2-9.4,6.1-9.4,11.7v49.2c-22.2,7.9-42.8,19.8-60.8,35.1L70.1,77.4c-4.9-2.8-11-1.9-14.8,2.3c-25.1,27.1-43.7,59.4-54.7,94.6
	c-1.7,5.4,0.6,11.2,5.5,14l42.6,24.6c-4.3,23.2-4.3,47,0,70.2L6.1,307.7c-4.9,2.8-7.1,8.6-5.5,14c11,35.2,29.7,67.5,54.7,94.6
	c3.8,4.1,9.9,5.1,14.8,2.3l42.6-24.6c17.9,15.4,38.5,27.3,60.8,35.1v49.2c0,5.6,3.9,10.5,9.4,11.7c36,8,73.2,8,109.2,0
	c5.5-1.2,9.4-6.1,9.4-11.7v-49.2c22.2-7.9,42.8-19.8,60.8-35.1l42.6,24.6c4.9,2.8,11,1.9,14.8-2.3c25.1-27.1,43.8-59.4,54.8-94.6
	C476,316.3,473.7,310.4,468.8,307.6z"/>
<path class="st1" d="M217.6,312h-28.1l-11.2-29.1h-51.1L116.6,312H89.2L139,184h27.3L217.6,312z M170,261.4l-17.6-47.5l-17.3,47.5
	H170z"/>
<path class="st1" d="M231.3,312V184h41.5c15.7,0,26,0.6,30.7,1.9c7.4,2,13.9,6.4,18.4,12.5c5,6.4,7.4,14.7,7.4,24.9
	c0,7.9-1.4,14.5-4.3,19.8c-2.6,5-6.3,9.3-10.9,12.6c-4,2.9-8.6,4.9-13.4,6.1c-6.2,1.2-15.1,1.9-26.8,1.9h-16.9V312L231.3,312z
	 M257.2,205.7V242h14.1c10.2,0,17-0.7,20.4-2c3.3-1.2,6.1-3.4,8.1-6.3c2-2.9,3-6.4,2.9-10c0.2-4.2-1.3-8.4-4.1-11.5
	c-2.7-3-6.4-5-10.3-5.7c-3.1-0.6-9.3-0.9-18.6-0.9H257.2z"/>
<path class="st1" d="M349.8,312V184h25.8v128H349.8z"/>
</svg>
