<svg id="Layer_1" data-name="Layer 1" xmlns="http://www.w3.org/2000/svg" viewBox="0 0 100 100"><defs><style>.cls-1{fill:#b4ca65;}.cls-2{fill:#a91e50;}</style></defs><title>ejs</title><rect class="cls-1" width="100" height="100"/><path class="cls-2" d="M35.39,59.12v5.61H12V34.55h22.8v5.6H19v6.56H33v5.43H19v7Z" transform="translate(0)"/><path class="cls-2" d="M36.7,60.85l3.88-4.66c1.64,2.2,3.45,3.32,5.61,3.32,2.8,0,4.26-1.68,4.26-5V40.15H39.85v-5.6H57.4V54.12c0,7.46-3.76,11.13-10.87,11.13A12.16,12.16,0,0,1,36.7,60.85Z" transform="translate(0)"/><path class="cls-2" d="M61.93,61.75l2.38-5.25a17.74,17.74,0,0,0,10,3.14c4.14,0,5.83-1.38,5.83-3.23,0-5.65-17.55-1.77-17.55-13,0-5.13,4.14-9.4,12.72-9.4a20.2,20.2,0,0,1,10.47,2.68L83.58,42a17,17,0,0,0-8.37-2.37c-4.14,0-5.73,1.55-5.73,3.45,0,5.56,17.55,1.72,17.55,12.8,0,5-4.19,9.36-12.81,9.36C69.44,65.25,64.61,63.82,61.93,61.75Z" transform="translate(0)"/></svg>