<?xml version="1.0" encoding="utf-8"?>
<!-- Generator: Adobe Illustrator 23.0.1, SVG Export Plug-In . SVG Version: 6.00 Build 0)  -->
<svg version="1.1" id="Layer_1" xmlns="http://www.w3.org/2000/svg" xmlns:xlink="http://www.w3.org/1999/xlink" x="0px" y="0px"
	 viewBox="0 0 120 120" style="enable-background:new 0 0 120 120;" xml:space="preserve">
<path d="M37.2,73.4V47.1h1.4v4.1c0.2-0.2,0.3-0.4,0.5-0.6c1.2-2.5,3.7-4,6.4-4c3.2-0.1,5.9,1.1,7.4,4c2,3.6,2.1,8,0.3,11.8
	c-1.4,3.2-5,4.8-8.8,4.3c-2.4-0.2-4.6-1.6-5.7-3.8v10.4L37.2,73.4z M38.6,56.4l0.3,3.1c0.6,3.5,2.6,5.6,5.9,6
	c3.2,0.5,6.2-1.3,7.4-4.3c1.3-3,1.2-6.4-0.3-9.4c-1.2-2.7-4-4.2-6.9-3.8c-2.7,0.2-5,2.1-5.7,4.7C39,54,38.8,55.2,38.6,56.4
	L38.6,56.4z M83.6,60c-0.4,3.8-3.7,6.7-7.5,6.8c-6,0.3-8.8-3.7-9.2-8.2c-0.3-2.5,0.1-5,1.2-7.3c1.5-3.2,4.9-5,8.4-4.5
	c3.3,0.3,6.1,2.7,6.9,5.9c0.3,1.4,0.5,2.9,0.7,4.4H68.4c-0.3,4.1,1.9,7.5,5.1,8.3c3.9,1,7.3-0.7,8.5-4.5
	C82.3,59.9,82.8,59.7,83.6,60L83.6,60z M68.4,55.7h14c-0.1-4.4-2.8-7.6-6.6-7.7C71.6,47.9,68.6,51,68.4,55.7z M86.5,60.1h1.4
	c0.1,2.1,1.4,3.9,3.2,4.8c2.4,1.1,5.1,1,7.3-0.2c1.3-0.6,2-1.9,1.9-3.2c0.1-1.3-0.8-2.6-2-3c-1.5-0.6-3.1-0.9-4.7-1.4
	c-1.6-0.5-3.2-1-4.7-1.7c-2.5-1.2-2.6-5.9,0.2-7.4c2.9-1.7,6.5-1.7,9.5-0.1c1.8,1,2.8,3,2.5,5.1H100c0-0.1-0.1-0.1-0.1-0.2
	c-0.1-3.8-3.3-4.9-6.7-4.6c-1,0.1-2,0.4-2.9,0.9c-1.1,0.5-1.8,1.7-1.7,2.9c0,1.2,0.8,2.3,1.9,2.7c1.5,0.5,3.1,0.9,4.6,1.3l3.7,1
	c1.7,0.6,2.9,2.1,3,3.9c0.3,2-0.7,3.9-2.5,4.8c-3.2,1.8-8.6,1.3-10.9-1C87.2,63.5,86.5,61.8,86.5,60.1L86.5,60.1z M119.3,52.8H118
	c0-0.2-0.1-0.3-0.1-0.5c0-2-1.5-3.7-3.4-4.1c-1.8-0.5-3.7-0.4-5.4,0.3c-1.4,0.4-2.4,1.7-2.4,3.2c-0.1,1.4,0.9,2.7,2.3,3.1l5.9,1.5
	c0.6,0.2,1.3,0.3,1.9,0.6c1.9,0.7,3.2,2.4,3.2,4.4c0.1,2-1.1,3.8-3,4.6c-2.8,1.3-5.9,1.3-8.7,0.1c-2.3-1-3.8-3.3-3.6-5.9h1.3
	c0.5,2.3,2,4.2,4.2,5.1c2.2,0.9,4.6,0.7,6.6-0.6c1.2-0.6,1.9-1.9,1.9-3.2c0.1-1.3-0.8-2.6-2-3c-1.5-0.6-3.1-0.9-4.7-1.4
	c-1.6-0.4-3.2-1-4.7-1.7c-2.4-1.2-2.6-5.9,0.1-7.4c3-1.7,6.6-1.8,9.6-0.1C118.6,48.9,119.6,50.8,119.3,52.8L119.3,52.8z M34.9,66.3
	c-1.1,0.4-2.2-0.1-2.8-1l-5-6.9l-0.7-1l-5.8,7.9c-0.5,1-1.6,1.4-2.6,1l7.5-10.1l-7-9.1c1-0.4,2.2,0,2.8,1l5.2,7l5.2-7
	c0.5-0.9,1.6-1.4,2.6-1l-2.7,3.6l-3.7,4.8c-0.4,0.4-0.4,1-0.1,1.4c0,0,0.1,0.1,0.1,0.1L34.9,66.3L34.9,66.3z M66.7,47.1v1.4
	c-3.9-0.3-7.2,2.7-7.5,6.6c0,0.2,0,0.5,0,0.7c0,3.2,0,6.4,0,9.6v1.1h-1.4V47.1h1.4v3.9C60.9,48.2,63.5,47.1,66.7,47.1L66.7,47.1z
	 M0,56.1l0.6-3c1.7-6,8.5-8.4,13.2-4.8c2.8,2.2,3.4,5.2,3.3,8.7H1.6c-0.3,6.2,4.2,9.9,9.9,8c1.9-0.7,3.3-2.2,3.8-4.2
	c0.3-1,0.8-1.1,1.7-0.9c-0.3,2.4-1.7,4.5-3.8,5.7c-3.5,1.9-7.7,1.3-10.6-1.4c-1.4-1.6-2.2-3.5-2.4-5.6c0-0.3-0.1-0.7-0.2-1
	C0,57.2,0,56.7,0,56.1L0,56.1z M1.6,55.7h14c-0.1-4.5-2.9-7.6-6.7-7.7C4.8,48,1.8,51.1,1.6,55.7L1.6,55.7z"/>
</svg>
