<svg id="ps_cc_app_RGB.svg" xmlns="http://www.w3.org/2000/svg" viewBox="0 0 213.6 240"><defs><style>.cls-1{fill:#e535ab;}</style></defs><title>graphql</title><rect class="cls-1" x="-20.83" y="90.29" width="196.3" height="10.17" transform="translate(-57.14 114.64) rotate(-60)"/><rect class="cls-1" x="8.62" y="164.25" width="196.3" height="10.17"/><rect class="cls-1" x="72.25" y="137.22" width="10.17" height="113.38" transform="translate(-142.46 163.93) rotate(-60)"/><rect class="cls-1" x="157.55" y="-10.53" width="10.17" height="113.38" transform="translate(28.14 163.92) rotate(-60)"/><rect class="cls-1" x="20.68" y="41.03" width="113.38" height="10.17" transform="translate(-25.89 44.86) rotate(-30)"/><rect class="cls-1" x="157.62" y="-2.77" width="10.17" height="196.3" transform="translate(-39.09 94.13) rotate(-30)"/><rect class="cls-1" x="16.4" y="63.31" width="10.17" height="113.38"/><rect class="cls-1" x="187.02" y="63.31" width="10.17" height="113.38"/><rect class="cls-1" x="113.33" y="189.4" width="98.61" height="8.89" transform="translate(-88.34 107.29) rotate(-30)"/><path class="cls-1" d="M223.88,180A21.4,21.4,0,1,1,216,150.77,21.41,21.41,0,0,1,223.88,180" transform="translate(-13.2)"/><path class="cls-1" d="M53.14,81.39a21.4,21.4,0,1,1-7.85-29.23,21.43,21.43,0,0,1,7.85,29.23" transform="translate(-13.2)"/><path class="cls-1" d="M16.12,180a21.4,21.4,0,1,1,29.23,7.84A21.43,21.43,0,0,1,16.12,180" transform="translate(-13.2)"/><path class="cls-1" d="M186.86,81.39a21.4,21.4,0,1,1,29.24,7.84,21.43,21.43,0,0,1-29.24-7.84" transform="translate(-13.2)"/><path class="cls-1" d="M120,240a21.39,21.39,0,1,1,21.39-21.39A21.37,21.37,0,0,1,120,240" transform="translate(-13.2)"/><path class="cls-1" d="M120,42.78a21.39,21.39,0,1,1,21.39-21.39A21.37,21.37,0,0,1,120,42.78" transform="translate(-13.2)"/></svg>