<?xml version="1.0" encoding="utf-8"?>
<!-- Generator: Adobe Illustrator 23.0.1, SVG Export Plug-In . SVG Version: 6.00 Build 0)  -->
<svg version="1.1" id="Layer_1" xmlns="http://www.w3.org/2000/svg" xmlns:xlink="http://www.w3.org/1999/xlink" x="0px" y="0px"
	 viewBox="0 0 355.9 355.9" style="enable-background:new 0 0 355.9 355.9;" xml:space="preserve">
<style type="text/css">
	.st0{fill:#010101;}
	.st1{fill:#8AC640;}
	.st2{fill:#F0EFEF;}
	.st3{fill:#0A1825;}
	.st4{opacity:0.3;fill:#010101;enable-background:new    ;}
	.st5{fill:#010101;fill-opacity:0;}
	.st6{opacity:0.4;fill:#010101;enable-background:new    ;}
	.st7{fill:#8AC640;stroke:#010101;stroke-width:1.586;stroke-linejoin:round;stroke-miterlimit:10;}
</style>
<g>
	<path class="st0" d="M72.6,155.6c-10.4,4.9-37.9,26.9-43.2,33.4c-5.5,6.5-7.1-3.7-1.4-20.6c4.5-13.6,15.9-32.2,35-48.1
		c11.2-9.2,35.8-22.4,50.9-30.1c3.1-1.6,42.6-18.3,77.8-26.7c3.1-0.8-3.7,5.1-4.7,8.4c-5.3,15.5-111,81.9-111,81.9L72.6,155.6z"/>
	<path class="st0" d="M221.5,342.3c1.8,11,0.2,11.8-11.2,13.2c-11.4,1.4-19.8-2.9-22.8-5.7c-3.1-2.9-3.7-9.2-0.6-14.9
		c1.8-3.7,3.7-4.9,4.7-9.4c1-4.3,1.8-5.3,2.6-6.9c0.8-1.4,1-2.9,1.2-12.8c0.2-10,0-28.7,1-36.7c1-8.1,36.3,3.7,36.3,3.7
		s-8.4,20.8-10.6,25.9c-2.2,5.1-2,14.9-2,16.9s-0.8,6.1-1.4,6.3c-0.6,0.2,2,5.5,0.8,8.6C218.6,333.4,221.3,340.7,221.5,342.3z"/>
	<path class="st0" d="M234.9,30.9c-1.2-7.7,0-23,1.6-25.5c5.1-6.9,32-7.7,37.7,0.4c2.4,3.7,2.2,12.2,1.8,17.7
		c-0.4,5.5-1.8,17.3-2,21.2c-0.2,2.9-29.7,7.3-36.3-0.4C236,42.3,234.9,30.9,234.9,30.9z"/>
	<path class="st0" d="M294.8,322.6c12.4,9,22,10.6,28.3,13.9c6.3,3.3,4.7,9.6-5.9,11.4c-8.6,1.6-22-1.6-31-1.6s-28.9,1-34.2-2.6
		c-6.1-4.3-3.5-12.2-3.5-12.2c1.6-4.5,5.7-14.5,4.5-22.6s-2.9-12.6-5.9-20.2c-3.1-7.5-5.3-26.1-2.4-27.1s2,0,5.7,0.8
		c3.7,0.8,7.7,2,15.7,2s16.7-1.2,19.8-1.8c3.1-0.6,5.5-1.2,4.5,5.1c-1,6.3-4.1,18.1-4.3,27.3c-0.2,9.2-0.2,19.8,0.4,21.6
		C287.1,318.3,291.6,320.3,294.8,322.6z"/>
	<g>
		<g>
			<path class="st1" d="M251.2,51.3c-22.4,19.4-65.8,24.6-130.2,49.5c-16.5,6.3-60.5,25.3-71.1,45c35.6-20.6,48.9,7.7,51.7,36.9
				c2.6,27.3,16.3,41.6,51.3,40.7c36.1-0.8,47.1,20.2,57,44.8c19.4-94.3,50.3-112.6,70.3-128.7C322.7,105.1,270.6,44.4,251.2,51.3z"
				/>
			<path class="st1" d="M251.2,51.3C197.5,70,144.3,74.7,81.8,113.2c-14.9,9.2-46.2,29.9-52.3,69.7c22.8-25.3,75.6-57,140.1-77.2
				c32.6-10.2,56.4-16.9,85.3-28.1C252.9,64.5,252.9,59.4,251.2,51.3z"/>
		</g>
		<path class="st0" d="M319.9,162.9c0,0-3.9,13.2-11.6,17.5c0,0-5.7,2-17.1-4.3c-3.3-1.8-5.7-8.1-5.5-10.2c0.2-4.9,3.3-7.1,3.3-7.1
			s3.3-5.5,7.1-5.3c3.9,0.2,10.4,0.8,12.4-1C310.3,150.5,320.3,156.2,319.9,162.9z"/>
		<path class="st0" d="M236.8,34.8c0,0-0.8,10.4-2.2,16.9c-0.2,1.2-6.3,1.8-10.8,3.7c8.6,24.4,60.1,24.2,66.8,12.2
			c-3.3-2.2-9.8-5.7-12.8-6.9c-3.1-1.2-2.9-1-3.1-6.7c-0.2-5.7-0.6-16.3-1-19.1C273.2,31.9,241.7,31.9,236.8,34.8z"/>
		<path class="st2" d="M238.8,34.8c0,0,0,5.9-0.6,11.6c-0.2,2.6-0.4,4.3-0.8,6.3c-0.2,1.2,6.9,6.1,9,16.9c9.8,21.8,32.4,11,41.8,0.6
			c-3.3-2.2-8.6-5.3-14.7-7.7c-3.1-1.2-1.6-3.9-1.8-9.6c-0.2-5.7-1-14.1-1.4-17.1C269.8,32.7,243.7,31.9,238.8,34.8z"/>
		<path class="st0" d="M236.8,34.8c0,0-0.2,3.7-0.8,7.9c2.6,2.6,6.1,6.3,8.8,8.6c1.8,1.6,6.3,1.4,10.4,1.4c3.7,0,6.9,0.4,8.4-0.4
			c3.3-1.6,7.9-5.7,10.6-8.8c-0.2-3.7-0.4-7.1-0.6-8.8C273.2,31.9,241.7,31.9,236.8,34.8z"/>
		<path class="st0" d="M255.3,50.3c-2.4,0-5.3-0.2-7.5-0.6c-1-0.2-2-0.8-2.9-1.2c-1.4-1-2.9-2.2-4.5-3.5c-3.3-2.4-3.5-3.9-3.5-4.5
			c1.4-12.8-0.4-23.6-0.4-23.6s-1.4-5.5,6.3-6.9s12.4-1.6,12.4-1.6s4.9,0,12.4,1.6c7.7,1.4,6.3,6.9,6.3,6.9s-1.8,10.8-0.4,23.6
			c0,0.6-0.2,2-3.5,4.5c-2.9,2-5.1,4.3-7.3,4.7C260.6,50.1,257.8,50.3,255.3,50.3z"/>
		<path class="st0" d="M255.3,3c-13.4,0-16.1,3.7-20,7.7c-0.8,1-0.2,7.1,1.2,20.2h1.8c0,0-1.2-3.7-1-7.9s1-4.1,0.4-5.1
			c-0.8-1.2-2.4-3.3,1.2-5.3c3.7-2,9.4,1.6,16.3,1.8c6.9-0.2,12.8-3.9,16.5-1.8c3.7,2,2,4.1,1.2,5.3c-0.8,1.2,0.2,0.8,0.4,5.1
			c0.2,4.3-1,7.9-1,7.9h1.8c1.2-13,2-18.7,1.4-19.8C272.2,6.7,268.8,3.2,255.3,3z"/>
		<path class="st0" d="M319.9,163.5c0,0-3.9,12.4-11.4,16.7c-1.6-0.8-1.4-2-2.9-3.9c-0.4-0.6-1.8-1-2.4-1.6
			c-0.6-0.6-0.4-1.6-1.4-2.4c-0.8-0.8-1.4-0.2-2.2-0.8c-0.8-0.8-1-1.8-1.6-2.4c-0.4-0.4-2-0.6-2.4-1c-1-1-10-2.9-9.6-4.9
			c0.8-3.1,2.4-5.3,2.4-5.3s3.9-5.7,7.7-5.5c3.9,0.2,7.5,1,9.6-0.8C307.9,149.5,320.5,157,319.9,163.5z"/>
		<path class="st0" d="M293.4,73.5c0,0,12.8-3.1,21.6,5.3c8.8,8.6,8.1,19.1,5.5,25.7c2.2,2.6,6.3,10,3.3,18.7
			c13.4,11.4,7.5,28.9-4.5,40.5c0,0-2.9-10.6-14.3-11.2c0.4-4.1-10.6-7.3-5.5-17.9c-7.7-1.8-7.5-7.1-8.8-13.6
			C289.7,114.4,293.4,73.5,293.4,73.5z"/>
		<path class="st2" d="M288.7,79.2c0,0,14.9-7.5,23.6,1c8.8,8.6,6.3,17.9,3.7,24.4c2.2,2.6,7.5,10.2,4.3,19.1c-0.6,2-5.1,2-8.4,7.3
			c8.1-4.7,13.2-3.5,15.1,2.4c2.9,9.2-3.5,20.2-9,26.3c0-0.2-0.2-0.4-0.2-0.6c-0.8,3.1-1.8,9-7.9,15.5c-3.1,3.3-5.5,2.9-9,2
			c-4.1-1-5.5-2.9-11.2-5.9c-3.3-1.8-1.4-4.1-1.4-5.9c0-0.4,0.4-1,1-1.8c0.4-1,1.6-2.6,3.5-4.5c0,0,2.6-3.7,6.5-3.5
			c3.9,0.2,7.9-0.6,9-1.6l0,0c0-7.1-8.1-7.3-5.3-19.6c0.2-0.6,1.2-1.6,4.5-2c-4.9-1-7.1-1.2-10.6-4.5c-2.4-2.2-4.3-5.1-4.9-8.8
			C290.8,112.4,288.7,79.2,288.7,79.2z"/>
		<path class="st0" d="M245.7,66.4c-1.2-1.6-7.5-9.8-19.6-13c-3.5-1-5.7,1.8-9.2,3.9c-1-0.6-5.5-2.6-7.9-1.2s-4.1,2.9-6.5,3.9
			c-1.2-0.6-4.5-0.6-7.1,0.4c-2.6,0.8-6.7,2.6-10.6,7.9c-2.4,8.8,43.2,2.2,43.2,2.2L245.7,66.4z"/>
		<path class="st1" d="M246.1,66.4c-6.5-2.2-5.5-9.8-20-11c-2.9-0.2-4.7,2-6.7,3.5c1,1,2,2.6,2.6,4.3c-1.8-2-5.1-4.7-8.4-5.3
			c-3.1-0.6-5.1,1.6-8.4,3.3c0.6,0.6,1.2,1.6,2,2.9c-2.9-1.8-4.9-2.4-8.8-1c-2.6,0.8-7.7,3.1-11.6,8.6c-2.4,8.8,41.1-1,41.1-1
			L246.1,66.4z"/>
		<path class="st0" d="M284.4,69.6c0,0,0-2.2-0.2-4.3c0-0.4-1.6-1.4-1.6-1.8l-0.4-0.4c0,0,3.3-1.8,5.7-0.8c2.6,0.8,4.1,4.3,4.1,4.3
			c4.7-1.6,5.1,0.2,7.3,2.6c4.9-1,5.5,0.8,8.6,5.3c0,0-3.7-0.6-10.8,0.6C290.1,76.1,284.4,69.4,284.4,69.6z"/>
		<path class="st1" d="M283.6,68.6c0,0,1.2-1,0.8-1.2c2.2-1.2,5.3-2.6,6.7,1.2c4.7-1.6,5.3,0.6,7.5,3.1c5.7-2.6,6.1,0.6,6.5,2
			c-1.8,0-4.5,0.2-8.1,0.6C290.1,75.3,283.4,68.4,283.6,68.6z"/>
		<path class="st0" d="M214.4,63.5c0,0,11.6,4.1,21.4,3.5c9.8-0.8,26.5-1.6,35.4,3.7c0,0,9.2-3.3,17.7-1
			c8.6,2.2,24.2,16.9,19.6,32.4c-0.4,1-3.1,2.6-6.1,3.7c0,0,1.6,6.9-1.2,12.6c-2.9,5.5-9.2,16.1-9.4,30.8l0,0c-0.2,2.4-0.6,7.5-1,10
			c-15.9-0.6-40.3-6.5-64.4-6.1c0.2-2.6,0.4-4.3,0.6-6.9h0.6c-1.2-6.7-1.6-10.2-2.9-15.3c-7.7-4.9-15.9-10.6-22.8-21.4
			C195.2,98.5,214.4,63.5,214.4,63.5z"/>
		<path class="st0" d="M293,173.5c0,0,12.6,45.2-2.2,64.2c0,0,2.2,8.8-2.9,18.1c-0.8,4.1-1.8,7.7-2.4,11.8
			c-2.6,16.9-7.1,24-8.4,51.1l-12.2-0.2c0,0-1.4-19.6-5.7-29.9c-2.4-5.9-12-13.9-11.6-21.8c0.4-6.1,1.6-11.2,12-19.4
			c0.8-11.8-11-23-9.2-67L293,173.5z"/>
		<path class="st2" d="M289.3,171.7c3.3,20.8,10.8,51.5-2.9,66.6c0.6,2.9,1,6.9,0.2,11.6c-0.4,2.4-1.2,5.1-2.2,7.9
			c-2,4.9-2.9,12-3.5,16.3c-2.6,16.9-2.6,17.7-3.9,44.8l-12.2-0.2c0,0-1.4-19.6-5.7-29.9c-2.4-5.9-7.5-11-7.9-18.9
			c-0.4-6.1,3.9-18.3,14.1-17.9c-0.6-24.6-12-19.8-15.1-71.1L289.3,171.7z"/>
		<path class="st2" d="M214.4,63.5c0,0,4.5,1.4,9.4,1.8c4.9,0.4,10.2,0,14.9-0.2c9.8-0.8,23.6-1.8,32.8,3.5c0,0,5.1-1.6,10.6-1.2
			c2.4,0.2,4.9,2.2,7.7,3.1c9,2.2,17.5,17.1,13.6,30.6c-0.4,1-3.3,0-6.5,1c0.6,2.9,1,9.4-2.2,16.3c-3.5,6.9-7.9,15.9-7.1,33
			c-21.4-1-31-2.4-52.1-3.5c-1.8-7.5-3.1-15.1-3.3-18.9c2.9-1.4,4.5-2.6,6.7-5.1c-6.1,1-8.6,0.6-12.2-1.4c-3.7-2-10.2-8.6-13.4-12.8
			c-0.4-0.4-2.6,6.3-7.7,6.5c-1.8-2.6,5.9-10.2,4.5-13C204.8,92.6,214.4,63.5,214.4,63.5z"/>
		<path class="st0" d="M291,154.8c0,0,0.4,7.3,0.4,9.2c0,2,1.6,8.1,1.8,11c-2.2,3.9-12,12.6-29.7,15.9
			c-17.5,3.7-40.7-23.8-40.7-23.8c0.6-2.6,2.6-10.4,4.1-14.5c0.2-0.4,0.6-1.4,0.6-1.8C229.2,148,291,154.8,291,154.8z"/>
		<path class="st2" d="M286.5,155.4c0,5.1,0.8,8.8,1.4,12c1,5.9,2.6,9.8,2.6,13.6c0,11.8-15.5,9.8-28.5,10.2
			c-17.5,3.7-32.4-23.8-32.4-23.8c1.2-4.7,2-10,3.9-14.5l0,0c0.2-2.4,0.6-5.5,0.8-6.9c24.9,0,42.4,1.4,52.6,2.4
			C287.3,150.7,286.9,154.5,286.5,155.4L286.5,155.4z"/>
		<path class="st0" d="M266.9,181.6c0,0-10.8-24-43.2-16.9c-7.7,21.8-18.1,46.8-11.4,73.9c-6.7,9.2-14.5,14.3-14.5,31.2
			c0,16.9,0.8,19.8,0.8,19.8l23.8,1.2c0,0,7.7-10,10.8-20.8c0.8-3.1,1.6-8.6,1-14.9c0.8-1.2,4.3-4.1,4.7-9.6c0,0,11.6-6.1,18.3-21
			C263.7,211.2,262,199.6,266.9,181.6z"/>
		<path class="st2" d="M266.9,181.6c-0.6-2.2-8.8-24.2-38.9-17.7c-17.7,47.3-11.2,66.8-8.6,75.4c-12,15.3-17.5,18.5-15.1,49.5h15.9
			c7.3-11.6,9-15.9,9.4-31.2c0-0.6-2.2,1.2-3.9,3.3c1.2-6.3,4.7-7.5,7.3-11.4c1.2-1.6,2.2-4.1,2.2-7.3c14.3-9.6,19.6-21.6,22.6-34
			C260.4,199.6,263.3,185.5,266.9,181.6z"/>
		<path class="st0" d="M216.6,148.8c0,0,5.5,0.2,10.4,1.8c4.7,1.6,4.7,2.6,6.5,4.7s6.3,5.1,5.5,8.1c-0.4,1.6-1.4,2-2.9,3.5
			c-0.6,0.6-5.1,5.5-6.1,6.1c-0.6,0.4-1.4,1-2,1.4c-0.6,0.4-2.4,1.6-3.1,2c-2,1-3.5,1.6-5.7,1.4c0,0-5.1-0.2-8.4-3.7
			c0,0-0.4-1.6,0.4-2.4c0,0-4.3-3.7-5.5-6.1c-1.2-2.4-1.2-5.9-0.4-7.7C205.8,156.2,213.8,151.1,216.6,148.8z"/>
		<path class="st0" d="M221.7,347l-0.6,5.1c0,0-1.8,2.2-15.5,2c-13.9-0.2-17.5-4.5-18.7-6.7l-0.8-5.3c0,0,2.6-3.9,3.3-3.9
			c4.5,0.4,19.8,6.5,30.4,8.1C220.7,346.4,220.9,346.8,221.7,347z"/>
		<path class="st0" d="M251.2,336.6c0,2.2-0.2,2.2-0.2,4.5c2.4,1.8,8.6,2.9,20.2,2.6c16.9-0.4,32.6,5.1,51.7,1.8l0.2-3.7l-1.8-0.2
			l-67.8-5.5L251.2,336.6z"/>
		<path class="st0" d="M266.1,343.8c1.6,0,3.3,0,5.1,0c11-0.4,21.4,2,32.6,2.6c5.9-0.2,13.2-1.6,12.6-5.9l-57.8-4.9
			C255.1,339.5,257.8,342.8,266.1,343.8z"/>
		<path class="st0" d="M199.7,258c1.8,1.2,14.3,8.6,34.4,7.5c-0.4,3.9-0.2,11.4-9.2,24.6c-4.5,6.5-8.4,17.9-9.2,32.4
			c0.2,3.3,2,6.1-0.4,10.4c0.8,2.6,4.1,7.9,5.7,11.2c1.6,3.3,2.4,6.9-8.4,7.1c-11,0.2-28.7-1-26.3-9.6c1.2-4.5,4.7-9.2,5.1-11
			c0.4-1.8,0.4-7.3,3.9-11c3.1-10.2,2-20,1.4-29.1C195.8,281,195.6,265.8,199.7,258z"/>
		<path class="st0" d="M218.6,92c14.5-19.4,2.2-34.8-21-30.1c-9.4,1.8-18.7,8.4-19.4,20.2c-3.1,0.4-10,0.8-13.4,13.4
			c-2.6,9.8-4.1,11.6-8.8,16.5c-3.1,3.5,0.2,10.6,2.4,15.7c7.5,17.5,30.8,19.1,46.4,32.4c5.3-1.4,10.8-7.3,12.4-11.2
			c-13.2-15.7-10.4-21.8-15.7-29.9C207.4,116.9,220.5,108.9,218.6,92z"/>
		<path class="st2" d="M215.8,90.8c0.8-1.2,2.2-3.9,2.9-4.9c0.2-0.2,2.4,3.7,2.6,3.5c5.5-9,6.9-22,0.6-23.2
			c-1.4-0.2-4.1-0.8-6.3-1.6c-4.1-1.4-7.7-1.4-14.3-0.2c-9,1.6-17.9,8.1-17.9,17.5c0,0.6,6.3,2.4,8.1,10c-3.1-4.3-8.4-9-14.7-4.9
			c-6.7,4.3-3.3,14.1-12.2,24.2c-3.1,3.5-2.6,7.5,0.6,15.7c5.3,12.8,30.4,19.8,44,32c3.3-1.4,5.5-4.7,7.1-7.1
			c-9.2-9.6-12.8-18.5-15.5-25.1c-3.3-7.5-6.9-11.8-14.1-17.5c3.7,1.4,6.5,2.9,8.1,4.1c1.8,1.2,4.5,1.4,6.9,0.6
			C210.7,110.8,215.4,98.5,215.8,90.8z"/>
		<path class="st0" d="M304.4,94.1c-0.6,7.7-6.3,3.9-9.4,2.4c-6.1-2.6-12.2-4.5-19.4-4.5s-16.3,0.6-24.2,2.6
			c-11,3.1-14.3,2.9-19.1,0.4c-4.9-2.6-13.4-9.2-13.4-9.2s-0.2,2,1.8,4.7c2.6,3.3,8.6,7.3,16.5,10c3.9,1.2,6.9,0.4,10.4-0.4
			c18.1-4.5,37.3-5.3,53.4,4.5c0.8,0.4,3.7-0.8,4.9-2.6C307.5,99.3,304.4,94.1,304.4,94.1z"/>
		<path class="st3" d="M211.7,171.7c1.6,1,3.7,1.6,5.9,3.5c0,0-1.8,0-2.6-0.8C214,173.7,211.9,171.9,211.7,171.7L211.7,171.7z"/>
		<path class="st2" d="M270.6,10.1C270,8.3,265.5,5,255.1,5c-11.2,0-14.5,3.5-14.7,5.3c0,0.6-0.8,7.1-1,9.8c0,0,0,3.3,0.2,8.1
			c0.2,3.3,1,5.1,1.4,9.4c0.4,4.5,1.6,7.3,3.9,11c1,0.6,1.8,1.2,2.9,1.4c4.1,0.8,11.2,1,15.1,0c2.2-0.6,5.1-4.5,5.7-7.9
			c0.8-4.3,1.6-7.3,1.8-10c0.4-2.6,0.6-8.6,0.8-10.2C271.8,17.5,270.8,10.5,270.6,10.1z"/>
		<path class="st0" d="M249.2,261.9c0,0,10.8,4.7,37.5,0.6c0,0-7.5,37.9-4.1,56.8c0,0,3.5,4.9,29.1,14.3c0,0,11.4,2.9,11,8.6
			c0,0,0.4,1.2-13.4,0.8s-26.9-2.9-36.1-2.9c-9.2,0-18.9,0.4-20.6-2.2c-1.8-2.4,0.4-8.8,3.1-12.4c2.9-3.9,2-6.7,1.8-13.6
			C256.9,293.7,243.1,274.9,249.2,261.9z"/>
		<path class="st1" d="M247,265.4c-1.4,2,0.2,9.8,2.2,17.3c2,7.5,6.5,12,7.5,24.4c1,12.2,1.2,13.9-2.2,21s-4.5,13.6,7.5,13.9
			s18.5-0.2,30.8,1.6c12.2,1.8,16.5,2.4,23.2,1.4s8.1-3.3,5.3-5.3c-2.9-2-14.7-4.3-19.8-8.4c-4.9-3.7-18.7-9.8-18.9-11.4
			c-0.6-5.5-0.8-25.5,0.2-32c1-6.5,2.4-15.9,2.9-18.3s2.4-4.9-1-4.1c-3.5,0.8-16.5,2.6-26.3,2C248.6,267,247.6,264.7,247,265.4z"/>
		<path class="st4" d="M253.9,328.3c3.5,1.6,8.6,2.9,12.4,2.9c0,0-1.4,6.7,0.8,10.8c2.2,4.1-16.3,1.6-16.3,1.6l-0.8-14.5
			L253.9,328.3z"/>
		<path class="st4" d="M307.9,345.8c3.3-1,5.5-4.7,2.9-8.1c-2.9-3.5-5.3-4.1-1.6-4.3c3.7-0.2,17.1,7.9,17.1,7.9l-6.9,6.3
			L307.9,345.8z"/>
		<path class="st4" d="M246.3,273.3c4.7,1.6,11.8,2,17.9,1.8c6.1-0.2,15.3-1,21.2-3.1c5.9-2,3.5,2.2,3.5,2.2l-3.3,3.1
			c0,0-7.7,3.1-20.4,2.9c-14.9-0.2-19.4-1.8-19.4-1.8L246.3,273.3z"/>
		<path class="st4" d="M246.8,283.5c4.7,1.6,11.8,2,17.9,1.8c6.1-0.2,14.3-0.2,20.2-2.4c2.4-0.8,1,2.6,1,2.6l-1,1.8
			c0,0-7.9,2.9-20.4,2.6c-14.9-0.2-17.5-1.4-17.5-1.4L246.8,283.5z"/>
		<path class="st5" d="M249.2,261.9c0,0,17.7,6.3,37.7,2c0,0-7.7,36.5-4.3,55.2c0,0,3.5,4.9,29.1,14.3c0,0,11.4,2.9,11,8.6
			c0,0,0.4,1.2-13.4,0.8c-13.9-0.4-26.9-2.9-36.1-2.9c-9.2,0-18.9,0.4-20.6-2.2c-1.8-2.4,0.4-8.8,3.1-12.4c2.9-3.9,2-6.7,1.8-13.6
			C256.9,293.7,243.1,274.9,249.2,261.9z"/>
		<path class="st5" d="M249.2,261.9c0,0,17.7,6.1,37.7,1.8c0,0-7.7,36.7-4.3,55.4c0,0,3.5,4.9,29.1,14.3c0,0,11.4,2.9,11,8.6
			c0,0,0.4,1.2-13.4,0.8c-13.9-0.4-27.1-4.3-36.1-2.9c-9.6,1.6-18.9,1-20.6-2.2c-1.4-2.6,0.4-8.8,3.1-12.4c2.9-3.9,2-6.7,1.8-13.6
			C256.9,293.7,243.1,274.9,249.2,261.9z"/>
		<path class="st0" d="M233.3,140.7c0,1.4,15.9,9.4,24.6,11c8.8,1.6,27.1,0,29.9-0.6l-0.4,2.9c0,0-21.8,3.3-38.5-1.2
			c-16.7-4.5-14.9-5.5-14.9-5.5L233.3,140.7z"/>
		<g>
			<path class="st2" d="M199.3,314.4c2.4,1.2,11.2,3.5,16.9,2.2c0.8-0.2,0-14.1,2.2-20.4c3.3-8.8,8.6-15.9,11-31.4
				c-8.6-0.8-18.3-3.1-23.4-4.7C199.5,280.2,201.7,297.3,199.3,314.4z"/>
			<path class="st2" d="M212.9,327.3c1.4,0.4,2.4,2,2.9,1c0.8-1.8-1.4-5.3-1.6-7.7c0-0.2,0,0,0-0.2c-1.8-1.6-14.3-1.8-13.4-1
				c-1.4,2.6-3.7,2.2-4.5,7.5c-0.4,2.6,2.9,0.4,5.9,0.2c-5.5,3.7-11.8,8.4-12.8,12.4c-1.2,5.7,0.8,7.3,6.9,10.4
				c5.3,1.2,11.6,1.4,16.5,1.2c5.5-1,6.5-3.7,4.9-7.3C215.2,338.3,213.6,331.1,212.9,327.3z"/>
		</g>
		<path class="st0" d="M215.2,62.7c6.7,3.9,16.1,2.9,19.6,2.6c0.8,0,9-1.4,9.4-1.2c0.8,0.2,0.8,0.8,0.8,0.8s-3.1,1.6-10,2
			c-6.5,0.4-14.3,0-18.5-2C211.3,62.7,215.2,62.7,215.2,62.7z"/>
		<path class="st0" d="M284.4,66.6c1.2,0.8,9.2,3.9,12.6,7.5c3.1,3.3,1.4,3.1,0.8,2.2c-0.8-1-7.1-5.3-9.6-6.3s-5.5-2.9-5.5-3.3
			S284.4,66.6,284.4,66.6z"/>
		<path class="st2" d="M214.2,151.1c5.9-0.4,12,1,15.9,5.1c2,2,5.3,4.3,4.9,6.3c0,0.6-1.2,2.2-2.2,3.5c-0.6,0.8-2.4,2.6-3.1,3.3
			c-0.8,0.6-3.7,2.9-4.3,3.3c-0.6,0.4-1.4,1.4-2,1.6c-2,1-4.3,0.2-6.3-0.8c-2-1,0.4-1.2-1.8-2.9c-5.5-3.9-8.6-6.5-6.3-14.1
			C209.1,155,211.3,153.3,214.2,151.1z"/>
	</g>
	<path class="st6" d="M162.2,104.4c-18.3,7.3-65,30.6-78.2,37.7l0,0c11,6.9,16.1,23.6,17.7,40.5c0.2,1.6,0.4,3.1,0.6,4.7
		c0.2,1.4,0.4,2.4,0.6,3.1c0,0.2,0,0.6,0.2,0.8c12-32.8,55-67.4,56.6-70.1c0.8-1.2-1-6.5,1.8-11.6
		C165.3,103,172.4,100.2,162.2,104.4z"/>
	<path class="st6" d="M205.8,258.2c9.4-18.7,9.6-36.7,9.4-57.6c0-8.8,6.3-21.2,3.1-17.7c-12.2,13.6-43,39.3-65.2,40.7
		C184.2,222.6,196.4,238.3,205.8,258.2z"/>
	<path class="st0" d="M66.1,159.4c11.6-8.4,71.7-40.3,86.2-44.8c14.5-4.7,10-10.2,10-10.2s-58.7,25.3-93.7,47.1"/>
	<path class="st6" d="M237.2,100.6c-4.7-1.8-8.4,3.7-7.1,9c1.2,5.3,12.2,11.2,11.6,30.6c-0.4,15.9-3.9,22.4-3.9,22.4l-7.7-9.8
		c0,0-1.2-22-3.9-25.3c-2.6-3.3-11-9.2-14.3-12.2c-3.3-3.1,3.7-7.1,3.3-12.8c-0.4-5.5,3.5-16.5,3.5-16.5L237.2,100.6z"/>
	<path class="st6" d="M265.5,187.3c-0.4,15.3,3.1,37.9,4.5,48.7c1.4,10.8,3.3,11.6,0,16.5c-3.3,4.7-7.5,12.4-7.5,12.4l-14.1-1.2
		c0,0,11.2-14.3,11.8-16.9c0.6-2.6-5.7-22.8-5.7-22.8L265.5,187.3z"/>
	<path class="st6" d="M238.4,44.8c2.9,6.3,6.3,9.2,11.8,11c3.3,1.2,16.1,2.9,21.2-2.9c2.2-2.6,0.8-9.8,0.8-9.8l-11.6,9.4l-15.7-2.9
		l-1.8-4.7L238.4,44.8z"/>
	<path class="st7" d="M239.6,58.8c5.3,3.5,18.5,6.7,22.2,7.3c3.7,0.8,9.6-3.9,12.4-5.1c3.1-1.4,8.4-2.2,14.5,3.3
		c0.6,0.6-1.4,3.3-1.4,3.3c-0.2-0.2-1.4-0.2-3.1-1c-1.6-0.8-3.1-1.4-5.5-1.2C268.5,66.6,266.9,70,258,68s-11.2-3.7-20-3.3"/>
	<path class="st1" d="M237.8,59.4c6.7,2.9,19.8,5.9,23.4,6.7c3.7,0.8,9.6-2.9,12.4-4.7c5.1-3.3,11.6-0.6,14.7,2.9
		c2,2.2,2.9,3.7,2.9,4.3c0,0.8-2.4,0-2.4,0c-1.4-0.6-3.1-0.8-4.3-1.6c-1.6-0.8-3.3-2-5.7-1.8c-10.2,1.2-12.2,4.7-21,2.6
		c-8.8-2-11-3.9-20.4-3.3"/>
	<path class="st0" d="M206.2,249.7c-0.4-0.4,0.4-0.8,0-0.8c-2.6,0-6.3-2-8.4-4.9c-8.8-12.6-21.6-21-44.8-20.4
		c-34.8,0.8-48.7-13.4-51.3-40.7c-1.4-14.9-5.5-29.3-13.9-37.5l-4.9,3.1c9.4,8.1,12.4,21.4,14.5,39.5c3.3,27.3,25.3,39.9,50.9,40.3
		c26.7,0.4,36.3,5.9,46.2,19.4c3.3,4.3,6.9,5.7,9.8,6.3L206.2,249.7z"/>
	<path class="st6" d="M300.7,118.7c0.6,3.1,2.2,9,5.5,11.8c1.4,1.4,1.6,1.8,0.4,1.8c-1.2,0-10.2-0.4-10.2-0.4l-2.4-4.3L300.7,118.7z
		"/>
</g>
</svg>
