<?xml version="1.0" encoding="utf-8"?>
<!-- Generator: Adobe Illustrator 23.0.1, SVG Export Plug-In . SVG Version: 6.00 Build 0)  -->
<svg version="1.1"
	 id="svg2" xmlns:cc="http://creativecommons.org/ns#" xmlns:dc="http://purl.org/dc/elements/1.1/" xmlns:rdf="http://www.w3.org/1999/02/22-rdf-syntax-ns#" xmlns:svg="http://www.w3.org/2000/svg"
	 xmlns="http://www.w3.org/2000/svg" xmlns:xlink="http://www.w3.org/1999/xlink" x="0px" y="0px" viewBox="0 0 1443 1443"
	 style="enable-background:new 0 0 1443 1443;" xml:space="preserve">
<style type="text/css">
	.st0{fill:#961A1F;}
</style>
<g id="g10" transform="matrix(1.3333333,0,0,-1.3333333,0,602.98667)">
	<g id="g12" transform="scale(0.1)">
		<path id="path14" class="st0" d="M10519-1630h-73.4v-191.1h-64.2v191.1h-73.5v55.2h211.1L10519-1630L10519-1630"/>
		<path id="path16" class="st0" d="M10547.7-1574.8h94.5l42.4-164.2h0.7l42.5,164.2h94.5v-246.3h-60.4v187h-0.7l-51.7-187h-49
			l-51.8,187h-0.7v-187h-60.3V-1574.8"/>
		<path id="path18" class="st0" d="M7978.1-1807.2c-89.6-37.8-180-56.7-271.2-56.7c-144.1,0-273.6,25.1-388.6,75.2
			c-115,50.1-212.1,119.2-291.1,207.2c-79.1,87.9-139.6,191.3-181.8,310.1c-42.1,118.8-63.2,246.8-63.2,384.1
			c0,140.7,21,271.4,63,391.9c42,120.5,102.5,225.6,181.3,315.4c78.9,89.8,175.7,160.1,290.7,211.2c115,51,244.5,76.6,388.5,76.6
			c96.6,0,190-14.6,280.5-43.6c90.4-29.1,172.1-71.9,245-128.3c72.9-56.4,133-126,180.4-208.6c47.4-82.7,76.4-177.5,87-284.6h-395.1
			c-24.6,105.3-72,184.3-142.3,237c-70.3,52.7-155.5,79-255.5,79c-93.1,0-172.1-18-237.1-54.1c-65-36.1-117.6-84.5-158.1-145.2
			c-40.4-60.8-69.8-129.8-88.2-207.2c-18.5-77.4-27.6-157.4-27.6-240.1c0-79.2,9.2-156.2,27.7-231c18.5-74.8,47.9-142.1,88.3-201.9
			c40.4-59.8,93.2-107.7,158.2-143.8c65-36.1,144.2-54.1,237.4-54.1c137.1,0,243,34.6,317.7,103.8
			c74.8,69.2,118.3,169.5,130.6,300.9h-416.2v309.5h789.1v-1017h-262.6l-42,213.4C8149.4-1703.1,8067.7-1769.4,7978.1-1807.2"/>
		<path id="path20" class="st0" d="M9198.4,60.2v-1531.3h916.7v-349.1H8785.8V60.2H9198.4"/>
		<path id="path22" class="st0" d="M7247.1-2054c-631.3-383.9-1576.8-602.5-2631.7-602.5c-1900.6,0-3441.4,791.4-3441.4,1767.7
			C1174.1,87.6,2714.8,879,4615.5,879c1058.8,0,2008.1-222.6,2639.4-609c-689.1,647.3-1924.6,1102.2-3337.2,1102.4
			C1754.2,1372.8,0.2,360.7,0-888.1c-0.2-1248.8,1753.5-2261.5,3917-2261.8C5324-3150.2,6556.3-2696.8,7247.1-2054"/>
		<path id="path24" class="st0" d="M3780,206.5l-362.8-1569.9L2979.1,206.5h-332.7l-437.1-1570l-363.9,1570h-342.8L2041-1839.8
			h321.6l452.9,1607.3l447.4-1607.3h322.5l557.2,2046.3H3780"/>
		<path id="path26" class="st0" d="M5049.1-654.8c-50.4,70.9-113.4,125.5-187.3,162.2c-76,37.8-164.2,56.9-262,56.9
			c-110.1,0-209.3-20-294.8-59.3c-81.1-37.4-150.3-92.3-205.8-163.2c-102.6-131.3-156.9-316.3-156.9-535c0-97.3,13.8-188.7,41-271.5
			c27.4-83.2,67.8-156.3,120.2-217.1c110.1-127.9,267-195.5,453.8-195.5c98.1,0,178.2,10.3,244.8,31.4
			c58.2,18.4,96.9,42.3,128.6,63.2c40.8,26.9,78.4,60.1,111.5,98.4c28.2,32.6,53.2,68.9,74.6,108.1c38.2,70.1,56.6,135.6,60.9,170.4
			l2.8,23h-267.2l-1.5-18.9c-6.7-86.8-120.7-241.9-323.7-241.9c-290.2,0-359.4,209.8-364,394.6h971.7v20.5
			c0,119.2-12.2,227.9-36.2,323.4C5135-807.6,5097.8-723.3,5049.1-654.8L5049.1-654.8z M4569.1-676.7
			c215.3,0,330.4-115.9,351.3-354.1h-696C4234.6-836.8,4388.3-676.7,4569.1-676.7"/>
		<path id="path28" class="st0" d="M6540.8-851.5c-25.9,82.7-64,155.5-113.3,216.6c-50.9,63-112.7,112-183.6,145.6
			c-74,35.1-157,52.9-246.5,52.9h-0.3c-82.6-1.3-158.1-19.4-224.3-53.6c-54.7-28.3-103.7-68-146.2-118.3V19.4h-266.1v-1859.5h253.4
			v126.6c22.2-29.1,50.8-59.8,88.7-86.9c71.9-51.5,160.8-77.6,264.2-77.6c111.3,0,210.5,24.8,294.9,73.8
			c75.2,43.6,138.9,106.5,189.4,186.9c44,70.1,77.5,152.8,99.5,245.6c19,80.2,29.1,168,29.1,253.8
			C6579.5-1023.2,6566.5-933.5,6540.8-851.5z M6301.6-1153.5c0-146-29.4-268.3-84.9-353.8c-59.2-91.1-145-137.2-255.2-137.2
			c-159.3,0-345.2,111.4-345.2,425.2c0,150.3,18.6,266,56.8,353.7c55.2,126.6,147.9,188.1,283.3,188.1
			c144.1,0,240.6-56.5,294.7-172.7C6295.9-946.3,6301.6-1062.8,6301.6-1153.5"/>
	</g>
</g>
</svg>
